<svg id="visual" viewBox="0 0 2500 1500" width="2500" height="1500" xmlns="http://www.w3.org/2000/svg" xmlns:xlink="http://www.w3.org/1999/xlink" version="1.1"><rect x="0" y="0" width="2500" height="1500" fill="#acd8aa"></rect><defs><linearGradient id="grad1_0" x1="40%" y1="0%" x2="100%" y2="100%"><stop offset="16.666666666666664%" stop-color="#acd8aa" stop-opacity="1"></stop><stop offset="83.33333333333334%" stop-color="#acd8aa" stop-opacity="1"></stop></linearGradient></defs><defs><linearGradient id="grad2_0" x1="0%" y1="0%" x2="60%" y2="100%"><stop offset="16.666666666666664%" stop-color="#acd8aa" stop-opacity="1"></stop><stop offset="83.33333333333334%" stop-color="#acd8aa" stop-opacity="1"></stop></linearGradient></defs><g transform="translate(2500, 0)"><path d="M0 1093.3C-162.3 1016.5 -324.6 939.7 -495.5 858.2C-666.4 776.7 -845.8 690.5 -946.8 546.7C-1047.9 402.8 -1070.6 201.4 -1093.3 0L0 0Z" fill="#f48498"></path></g><g transform="translate(0, 1500)"><path d="M0 -1093.3C189.3 -1063.2 378.5 -1033 546 -945.7C713.5 -858.4 859.2 -713.8 946.8 -546.7C1034.4 -379.5 1063.9 -189.7 1093.3 0L0 0Z" fill="#f48498"></path></g></svg>