<svg id="visual" viewBox="0 0 2500 1500" width="2500" height="1500" xmlns="http://www.w3.org/2000/svg" xmlns:xlink="http://www.w3.org/1999/xlink" version="1.1"><rect x="0" y="0" width="2500" height="1500" fill="#acd8aa"></rect><defs><linearGradient id="grad1_0" x1="40%" y1="0%" x2="100%" y2="100%"><stop offset="16.666666666666664%" stop-color="#acd8aa" stop-opacity="1"></stop><stop offset="83.33333333333334%" stop-color="#acd8aa" stop-opacity="1"></stop></linearGradient></defs><defs><linearGradient id="grad2_0" x1="0%" y1="0%" x2="60%" y2="100%"><stop offset="16.666666666666664%" stop-color="#acd8aa" stop-opacity="1"></stop><stop offset="83.33333333333334%" stop-color="#acd8aa" stop-opacity="1"></stop></linearGradient></defs><g transform="translate(2500, 0)"><path d="M0 801.8C-139.9 780.6 -279.9 759.5 -400.9 694.3C-521.9 629.2 -624 520.1 -687.6 397C-751.3 273.9 -776.5 137 -801.8 0L0 0Z" fill="#f48498"></path></g><g transform="translate(0, 1500)"><path d="M0 -801.8C110.3 -730.3 220.6 -658.9 347 -601C473.4 -543.1 615.9 -498.8 694.3 -400.9C772.8 -303 787.3 -151.5 801.8 0L0 0Z" fill="#f48498"></path></g></svg>